<?xml version="1.0" standalone="no"?><!DOCTYPE svg PUBLIC "-//W3C//DTD SVG 1.1//EN" "http://www.w3.org/Graphics/SVG/1.1/DTD/svg11.dtd"><svg t="1644563651692" class="icon" viewBox="0 0 1024 1024" version="1.1" xmlns="http://www.w3.org/2000/svg" p-id="6431" xmlns:xlink="http://www.w3.org/1999/xlink" width="200" height="200"><defs><style type="text/css"></style></defs><path d="M511.981 82c-189.805 0-343.672 153.87-343.672 343.659 0 189.806 269.346 480.342 269.346 480.342 41.047 47.906 108.271 48.186 148.936-0.28 0 0 269.1-290.238 269.1-480.062-0.001-189.806-153.868-343.659-343.71-343.659z m0 491.7c-87.797 0-158.975-71.178-158.975-159.012 0-87.8 71.178-158.978 158.975-158.978 87.836 0 159.014 71.178 159.014 158.978 0 87.835-71.178 159.012-159.014 159.012z" p-id="6432"></path></svg>