<?xml version="1.0" standalone="no"?><!DOCTYPE svg PUBLIC "-//W3C//DTD SVG 1.1//EN" "http://www.w3.org/Graphics/SVG/1.1/DTD/svg11.dtd"><svg t="1644563622045" class="icon" viewBox="0 0 1024 1024" version="1.1" xmlns="http://www.w3.org/2000/svg" p-id="4705" xmlns:xlink="http://www.w3.org/1999/xlink" width="200" height="200"><defs><style type="text/css"></style></defs><path d="M243.81 930.161h-70.964v-328.65c0-186.5 151.153-337.764 337.764-337.764 186.583 0 337.734 151.293 337.734 337.764v328.65H243.81z m291.23-530.276l-166.609 274.39h133.253l-33.36 205.791 166.609-274.39H501.684l33.356-205.791zM790.553 98.449c15.638 9.112 20.987 29.143 11.968 44.839l-59.89 104.134-56.596-32.762 59.86-104.134a32.579 32.579 0 0 1 19.728-15.252 32.579 32.579 0 0 1 24.738 3.17h0.186l0.006 0.005zM510.5 21.332c19.588 0 35.424 14.747 35.424 33.059v118.011h-70.854V54.308c0.001-18.23 15.836-32.976 35.43-32.976zM230.638 98.45a32.656 32.656 0 0 1 44.653 11.967l59.888 104.139-56.596 32.786-59.942-104.158c-9.007-15.666-3.653-35.661 11.973-44.738l0.024 0.004zM25.744 304.24a32.587 32.587 0 0 1 19.827-15.27 32.59 32.59 0 0 1 24.802 3.297l103.75 60.186-32.65 56.818-103.785-60.272c-15.639-9.072-20.991-29.091-11.973-44.759h0.03z m969.704 0c9.014 15.698 3.664 35.728-11.974 44.84L879.75 409.19l-32.657-56.842 103.732-60.162c15.58-8.99 35.494-3.688 44.542 11.861 0 0.113 0.082 0.113 0.082 0.193zM57.118 930.161h907.06c19.594 0 35.54 15.947 35.54 35.536 0 19.594-15.946 35.541-35.54 35.541H57.118c-19.594 0-35.534-15.918-35.534-35.541a35.446 35.446 0 0 1 10.383-25.152A35.456 35.456 0 0 1 57.12 930.16z m0 0"  p-id="4706"></path></svg>