<?xml version="1.0" standalone="no"?><!DOCTYPE svg PUBLIC "-//W3C//DTD SVG 1.1//EN" "http://www.w3.org/Graphics/SVG/1.1/DTD/svg11.dtd"><svg t="1645099852793" class="icon" viewBox="0 0 1024 1024" version="1.1" xmlns="http://www.w3.org/2000/svg" p-id="1934" xmlns:xlink="http://www.w3.org/1999/xlink" width="200" height="200"><defs><style type="text/css"></style></defs><path d="M182.840382 850.567226a170.702221 170.702221 0 0 1-139.855506-169.208949l4.053164-511.978668a170.659556 170.659556 0 0 1 170.659556-169.336944h588.604808a170.659556 170.659556 0 0 1 170.659556 169.336944l4.053164 511.978668a170.744886 170.744886 0 0 1-117.541769 163.534519l33.150619 57.384276a63.997333 63.997333 0 1 1-110.843382 63.997333l-63.997333-110.843381A65.149285 65.149285 0 0 1 720.631307 853.340444H328.967626a65.149285 65.149285 0 0 1-1.151952 2.09058l-63.997333 110.843381a63.997333 63.997333 0 1 1-110.843382-63.997333l29.865423-51.709846zM448.002667 170.702221h-298.654223a21.332444 21.332444 0 0 0-21.332445 21.332444v255.989334a21.332444 21.332444 0 0 0 21.332445 21.332444h298.654223a21.332444 21.332444 0 0 0 21.332444-21.332444v-255.989334a21.332444 21.332444 0 0 0-21.332444-21.332444z m426.648889 0h-298.654223a21.332444 21.332444 0 0 0-21.332444 21.332444v255.989334a21.332444 21.332444 0 0 0 21.332444 21.332444h298.654223a21.332444 21.332444 0 0 0 21.332445-21.332444v-255.989334a21.332444 21.332444 0 0 0-21.332445-21.332444z m-127.994667 383.984c-35.283863 0-63.997333 28.7988-63.997333 63.997334s28.71347 63.997333 63.997333 63.997333 63.997333-28.7988 63.997334-63.997333-28.71347-63.997333-63.997334-63.997334z m-469.313778 0c-35.283863 0-63.997333 28.7988-63.997334 63.997334S242.059248 682.680888 277.343111 682.680888 341.340444 653.882088 341.340444 618.683555 312.626974 554.686221 277.343111 554.686221z"  p-id="1935"></path></svg>